<?xml version="1.0" encoding="UTF-8"?><svg id="Camada_2" xmlns="http://www.w3.org/2000/svg" width="62.11" height="51.52" viewBox="0 0 62.11 51.52"><g id="Camada_1-2"><path d="M36.59,35.5c.22-1.01.44-2.01.66-3.01.32.08.62.18.93.24.58.11,1.15.16,1.73.04.43-.09.79-.3,1.08-.64.31-.37.55-.79.74-1.24.05-.12,0-.21-.04-.31-.39-.81-.79-1.62-1.17-2.44-1.5-3.25-2.74-6.6-3.74-10.05-.01-.05-.03-.09-.03-.14,0-.02,0-.05,0-.09h3.98c.45,1.48.89,2.97,1.35,4.44.46,1.47.97,2.93,1.56,4.42.15-.42.28-.79.4-1.16.83-2.5,1.54-5.04,2.21-7.59.04-.14,0-.24-.04-.36-.75-1.87-1.72-3.61-2.94-5.2-3.05-3.96-6.99-6.62-11.81-7.95-.63-.17-1.27-.29-1.91-.41-1.31-.25-2.63-.34-3.96-.34-.98,0-1.96.07-2.93.21-3.76.54-7.18,1.94-10.2,4.24-4.18,3.19-6.89,7.35-8.15,12.46-.29,1.16-.46,2.35-.54,3.55-.07.95-.08,1.9-.02,2.85.16,2.73.78,5.35,1.92,7.84,2.26,4.9,5.83,8.52,10.69,10.86,1.51.73,3.09,1.25,4.73,1.6.45.1.9.2,1.35.27.47.07.96.11,1.44.14.5.04.99.07,1.49.08.83.02,1.66-.01,2.49-.1.55-.06,1.11-.11,1.65-.21.93-.17,1.85-.38,2.75-.67,5.84-1.89,10.19-5.57,13.07-10.99.52-.99.91-2.03,1.31-3.06,1.43-3.71,2.88-7.42,4.31-11.14.03-.07.06-.14.1-.24.13.4.16.78.2,1.16.17,1.34.23,2.68.19,4.03-.03,1.04-.12,2.08-.28,3.11-.31,1.99-.83,3.92-1.59,5.78-1.24,3.02-2.97,5.72-5.24,8.08-3.53,3.68-7.78,6.11-12.75,7.3-.57.14-1.15.24-1.73.34-.49.08-.99.14-1.49.19-1.27.14-2.54.18-3.81.11-.43-.02-.87-.04-1.3-.06-.09,0-.18-.04-.27-.05-.53-.05-1.04-.13-1.56-.22-.4-.07-.8-.11-1.19-.21-.99-.25-1.99-.5-2.95-.85-6.3-2.27-11.06-6.35-14.27-12.24-1.22-2.25-2.05-4.65-2.55-7.16-.09-.44-.18-.88-.24-1.32-.06-.46-.11-.92-.14-1.38C.05,27.16,0,26.32,0,25.48c0-.73.07-1.46.12-2.19.03-.39.05-.79.11-1.18.06-.43.15-.85.24-1.27.46-2.33,1.21-4.55,2.28-6.67,1.21-2.39,2.75-4.55,4.63-6.46,3.34-3.39,7.32-5.69,11.92-6.9.94-.25,1.9-.43,2.87-.57,1.42-.19,2.84-.28,4.27-.24.5.02.99.04,1.49.09.54.05,1.07.11,1.6.19,2.02.3,3.99.82,5.88,1.6,5.64,2.35,9.94,6.2,12.91,11.54.74,1.33,1.33,2.72,1.82,4.16.05.16.07.31.02.48-.97,3.25-2.05,6.46-3.32,9.61-.65,1.61-1.33,3.2-2.1,4.76-.33.66-.71,1.29-1.18,1.87-.89,1.09-2.04,1.65-3.43,1.72-.53.02-1.06.01-1.58,0-.4-.01-1.54-.32-1.94-.52h0Z" fill="#5377a0"/><path d="M12.61,31.01v5.04h-3.8v-17.74c.27-.07.54-.16.82-.21.7-.13,1.4-.28,2.11-.37.74-.09,1.49-.15,2.24-.18.45-.02.91.05,1.37.07.55.02,1.07.14,1.59.31,2.24.74,3.6,2.28,4.14,4.56.23.95.28,1.92.21,2.89-.07.92-.23,1.82-.58,2.68-.52,1.29-1.34,2.3-2.6,2.93-.64.32-1.32.49-2.03.55-1.14.1-2.25-.06-3.31-.5-.03-.01-.07-.02-.15-.04h0ZM12.62,20.92v6.61s0,.09,0,.14c-.01.1.03.16.12.2.41.22.85.35,1.3.42.37.06.76.07,1.14.01.69-.1,1.25-.4,1.64-.99.21-.32.35-.68.44-1.05.18-.77.21-1.56.13-2.34-.06-.6-.21-1.18-.51-1.71-.41-.72-1-1.19-1.83-1.36-.65-.13-1.3-.07-1.95-.01-.15.01-.3.05-.47.07h0Z" fill="#5377a0"/><path d="M34.93,30.93c-.3.06-.59.13-.88.18-.72.12-1.45.25-2.17.34-.49.07-.99.1-1.49.12-.64.02-1.28.03-1.91,0-.88-.03-1.74-.15-2.57-.46-.85-.33-1.57-.83-2.02-1.64-.15-.27-.27-.56-.36-.86-.24-.83-.25-1.67-.07-2.51.23-1.03.84-1.79,1.75-2.31.69-.39,1.43-.61,2.22-.72.58-.08,1.15-.14,1.74-.13.51,0,1.02.01,1.53.13.18.04.37.04.55.06.15-.97-.29-1.94-1.13-2.25-.22-.08-.45-.11-.68-.16-.38-.07-.76-.09-1.13-.07-.43.02-.86.09-1.29.12-.65.04-1.26.21-1.88.39,0,0-.02,0-.05,0-.16-1-.32-2.01-.49-3.04.31-.08.6-.17.89-.22.49-.09.99-.16,1.48-.24.75-.12,1.51-.19,2.26-.17.39,0,.79.03,1.19.08.6.07,1.2.19,1.77.42,1.31.53,2.14,1.48,2.49,2.85.15.58.24,1.18.24,1.78,0,2.73,0,5.46,0,8.2,0,.03,0,.06,0,.12ZM31.27,28.55v-2.9c-.09-.02-.16-.04-.24-.05-.29-.03-.58-.08-.87-.09-.58-.03-1.15-.02-1.72.1-.26.06-.51.15-.73.3-.54.37-.64.9-.55,1.5.05.33.19.62.48.82.35.24.75.35,1.15.39.54.04,1.09.01,1.63,0,.28,0,.55-.05.84-.07Z" fill="#5377a0"/><path d="M56.59,22.38c0,.05-.01.11-.01.16v3.27c0,.47.04.93.2,1.38.08.22.19.45.33.64.25.34.62.48,1.03.53.98.12,1.93-.05,2.86-.34.03,0,.06-.02.09-.03.01,0,.03,0,.07,0,.18.97.35,1.95.53,2.93-.12.05-.23.09-.34.13-1.29.48-2.61.63-3.98.54-.65-.05-1.28-.16-1.87-.4-1.38-.56-2.18-1.6-2.5-3.04-.16-.71-.23-1.42-.23-2.14,0-3.87,0-7.75,0-11.62,0-.05,0-.09,0-.14.01-.02.03-.03.04-.05.08,0,.15-.01.23-.01h3.53v4.97h4.57v3.17c-.08,0-.16.01-.24.01h-4.01c-.08,0-.17,0-.26,0-.02.01-.03.02-.05.04h0Z" fill="#5377a0"/><path d="M62.09,8.79c0,.07.01.14.01.21v6.64h-3.1v-3.77h-3.78v-3.11s.09-.02.14-.02h6.62s.05,0,.07,0c.02.01.03.02.05.03h0Z" fill="#5377a0"/></g></svg>